<mxfile host="app.diagrams.net" modified="2021-04-03T10:24:12.418Z" agent="5.0 (Windows)" etag="_1hvp8Q4CobYVm0OVtZq" version="14.5.6" type="github">
  <diagram id="R2lEEEUBdFMjLlhIrx00" name="Page-1">
    <mxGraphModel dx="3220" dy="2455" grid="1" gridSize="10" guides="1" tooltips="1" connect="1" arrows="1" fold="1" page="1" pageScale="1" pageWidth="850" pageHeight="1100" math="0" shadow="0" extFonts="Permanent Marker^https://fonts.googleapis.com/css?family=Permanent+Marker">
      <root>
        <mxCell id="0" />
        <mxCell id="1" parent="0" />
        <mxCell id="kqpon6GhGyDIYH_nB1rT-1" value="Yayıncı" style="whiteSpace=wrap;html=1;align=center;" parent="1" vertex="1">
          <mxGeometry x="-125" y="140" width="100" height="40" as="geometry" />
        </mxCell>
        <mxCell id="kqpon6GhGyDIYH_nB1rT-2" value="&lt;u&gt;Numarası&lt;/u&gt;" style="ellipse;whiteSpace=wrap;html=1;align=center;" parent="1" vertex="1">
          <mxGeometry x="-160" y="50" width="100" height="40" as="geometry" />
        </mxCell>
        <mxCell id="kqpon6GhGyDIYH_nB1rT-3" value="Adı" style="ellipse;whiteSpace=wrap;html=1;align=center;" parent="1" vertex="1">
          <mxGeometry x="-50" y="50" width="100" height="40" as="geometry" />
        </mxCell>
        <mxCell id="kqpon6GhGyDIYH_nB1rT-4" value="Adresi" style="ellipse;whiteSpace=wrap;html=1;align=center;" parent="1" vertex="1">
          <mxGeometry x="-265" y="70" width="100" height="40" as="geometry" />
        </mxCell>
        <mxCell id="kqpon6GhGyDIYH_nB1rT-7" value="" style="endArrow=none;html=1;rounded=0;exitX=1;exitY=1;exitDx=0;exitDy=0;entryX=-0.004;entryY=-0.055;entryDx=0;entryDy=0;entryPerimeter=0;" parent="1" source="kqpon6GhGyDIYH_nB1rT-4" target="kqpon6GhGyDIYH_nB1rT-1" edge="1">
          <mxGeometry relative="1" as="geometry">
            <mxPoint x="125" y="320" as="sourcePoint" />
            <mxPoint x="285" y="320" as="targetPoint" />
          </mxGeometry>
        </mxCell>
        <mxCell id="kqpon6GhGyDIYH_nB1rT-8" value="" style="endArrow=none;html=1;rounded=0;exitX=0.5;exitY=1;exitDx=0;exitDy=0;entryX=0.5;entryY=0;entryDx=0;entryDy=0;" parent="1" source="kqpon6GhGyDIYH_nB1rT-2" target="kqpon6GhGyDIYH_nB1rT-1" edge="1">
          <mxGeometry relative="1" as="geometry">
            <mxPoint x="-164" y="130" as="sourcePoint" />
            <mxPoint x="-85" y="180" as="targetPoint" />
          </mxGeometry>
        </mxCell>
        <mxCell id="kqpon6GhGyDIYH_nB1rT-9" value="" style="endArrow=none;html=1;rounded=0;exitX=0.5;exitY=1;exitDx=0;exitDy=0;entryX=1;entryY=0;entryDx=0;entryDy=0;" parent="1" source="kqpon6GhGyDIYH_nB1rT-3" target="kqpon6GhGyDIYH_nB1rT-1" edge="1">
          <mxGeometry relative="1" as="geometry">
            <mxPoint x="-44" y="112" as="sourcePoint" />
            <mxPoint x="25" y="140" as="targetPoint" />
          </mxGeometry>
        </mxCell>
        <mxCell id="kqpon6GhGyDIYH_nB1rT-10" value="Yazar" style="whiteSpace=wrap;html=1;align=center;" parent="1" vertex="1">
          <mxGeometry x="285" y="160" width="100" height="40" as="geometry" />
        </mxCell>
        <mxCell id="kqpon6GhGyDIYH_nB1rT-11" value="&lt;u&gt;Numarası&lt;/u&gt;" style="ellipse;whiteSpace=wrap;html=1;align=center;" parent="1" vertex="1">
          <mxGeometry x="340" y="70" width="100" height="40" as="geometry" />
        </mxCell>
        <mxCell id="kqpon6GhGyDIYH_nB1rT-12" value="Adı" style="ellipse;whiteSpace=wrap;html=1;align=center;" parent="1" vertex="1">
          <mxGeometry x="420" y="100" width="100" height="40" as="geometry" />
        </mxCell>
        <mxCell id="kqpon6GhGyDIYH_nB1rT-13" value="Telefon Numarası" style="ellipse;whiteSpace=wrap;html=1;align=center;" parent="1" vertex="1">
          <mxGeometry x="240" y="70" width="100" height="40" as="geometry" />
        </mxCell>
        <mxCell id="kqpon6GhGyDIYH_nB1rT-14" value="" style="endArrow=none;html=1;rounded=0;exitX=1;exitY=1;exitDx=0;exitDy=0;entryX=0.153;entryY=-0.032;entryDx=0;entryDy=0;entryPerimeter=0;" parent="1" source="kqpon6GhGyDIYH_nB1rT-13" target="kqpon6GhGyDIYH_nB1rT-10" edge="1">
          <mxGeometry relative="1" as="geometry">
            <mxPoint x="505" y="330" as="sourcePoint" />
            <mxPoint x="665" y="330" as="targetPoint" />
          </mxGeometry>
        </mxCell>
        <mxCell id="kqpon6GhGyDIYH_nB1rT-15" value="" style="endArrow=none;html=1;rounded=0;exitX=0.41;exitY=1.05;exitDx=0;exitDy=0;exitPerimeter=0;" parent="1" source="kqpon6GhGyDIYH_nB1rT-11" target="kqpon6GhGyDIYH_nB1rT-10" edge="1">
          <mxGeometry relative="1" as="geometry">
            <mxPoint x="260.35533905932743" y="144.14213562373095" as="sourcePoint" />
            <mxPoint x="295" y="190" as="targetPoint" />
          </mxGeometry>
        </mxCell>
        <mxCell id="kqpon6GhGyDIYH_nB1rT-16" value="" style="endArrow=none;html=1;rounded=0;exitX=0;exitY=1;exitDx=0;exitDy=0;entryX=1;entryY=0;entryDx=0;entryDy=0;" parent="1" source="kqpon6GhGyDIYH_nB1rT-12" target="kqpon6GhGyDIYH_nB1rT-10" edge="1">
          <mxGeometry relative="1" as="geometry">
            <mxPoint x="336" y="122" as="sourcePoint" />
            <mxPoint x="342.3529411764705" y="170" as="targetPoint" />
          </mxGeometry>
        </mxCell>
        <mxCell id="kqpon6GhGyDIYH_nB1rT-17" value="Soyadı" style="ellipse;whiteSpace=wrap;html=1;align=center;" parent="1" vertex="1">
          <mxGeometry x="430" y="150" width="100" height="40" as="geometry" />
        </mxCell>
        <mxCell id="kqpon6GhGyDIYH_nB1rT-18" value="" style="endArrow=none;html=1;rounded=0;exitX=0;exitY=0.5;exitDx=0;exitDy=0;entryX=1;entryY=0.5;entryDx=0;entryDy=0;" parent="1" source="kqpon6GhGyDIYH_nB1rT-17" target="kqpon6GhGyDIYH_nB1rT-10" edge="1">
          <mxGeometry relative="1" as="geometry">
            <mxPoint x="343" y="192" as="sourcePoint" />
            <mxPoint x="385" y="232" as="targetPoint" />
          </mxGeometry>
        </mxCell>
        <mxCell id="kqpon6GhGyDIYH_nB1rT-20" value="Ünvanı" style="ellipse;whiteSpace=wrap;html=1;align=center;" parent="1" vertex="1">
          <mxGeometry x="420" y="190" width="100" height="40" as="geometry" />
        </mxCell>
        <mxCell id="kqpon6GhGyDIYH_nB1rT-21" value="" style="endArrow=none;html=1;rounded=0;entryX=1;entryY=1;entryDx=0;entryDy=0;" parent="1" source="kqpon6GhGyDIYH_nB1rT-20" target="kqpon6GhGyDIYH_nB1rT-10" edge="1">
          <mxGeometry relative="1" as="geometry">
            <mxPoint x="465" y="170" as="sourcePoint" />
            <mxPoint x="395" y="190" as="targetPoint" />
          </mxGeometry>
        </mxCell>
        <mxCell id="kqpon6GhGyDIYH_nB1rT-22" value="Kitap" style="whiteSpace=wrap;html=1;align=center;" parent="1" vertex="1">
          <mxGeometry x="50" y="480" width="100" height="40" as="geometry" />
        </mxCell>
        <mxCell id="kqpon6GhGyDIYH_nB1rT-23" value="&lt;u&gt;Numarası&lt;/u&gt;" style="ellipse;whiteSpace=wrap;html=1;align=center;" parent="1" vertex="1">
          <mxGeometry x="220" y="430" width="100" height="40" as="geometry" />
        </mxCell>
        <mxCell id="kqpon6GhGyDIYH_nB1rT-24" value="Adı" style="ellipse;whiteSpace=wrap;html=1;align=center;" parent="1" vertex="1">
          <mxGeometry x="230" y="480" width="100" height="40" as="geometry" />
        </mxCell>
        <mxCell id="kqpon6GhGyDIYH_nB1rT-27" value="" style="endArrow=none;html=1;rounded=0;exitX=0;exitY=1;exitDx=0;exitDy=0;entryX=0.997;entryY=0.419;entryDx=0;entryDy=0;entryPerimeter=0;" parent="1" source="kqpon6GhGyDIYH_nB1rT-23" target="kqpon6GhGyDIYH_nB1rT-22" edge="1">
          <mxGeometry relative="1" as="geometry">
            <mxPoint x="-230" y="590" as="sourcePoint" />
            <mxPoint x="-160" y="520" as="targetPoint" />
          </mxGeometry>
        </mxCell>
        <mxCell id="kqpon6GhGyDIYH_nB1rT-28" value="" style="endArrow=none;html=1;rounded=0;entryX=1;entryY=0.5;entryDx=0;entryDy=0;exitX=0;exitY=0.5;exitDx=0;exitDy=0;" parent="1" source="kqpon6GhGyDIYH_nB1rT-24" target="kqpon6GhGyDIYH_nB1rT-22" edge="1">
          <mxGeometry relative="1" as="geometry">
            <mxPoint x="50" y="628" as="sourcePoint" />
            <mxPoint x="-112.6470588235295" y="500" as="targetPoint" />
          </mxGeometry>
        </mxCell>
        <mxCell id="kqpon6GhGyDIYH_nB1rT-29" value="Kategori" style="whiteSpace=wrap;html=1;align=center;" parent="1" vertex="1">
          <mxGeometry x="560" y="770" width="100" height="40" as="geometry" />
        </mxCell>
        <mxCell id="kqpon6GhGyDIYH_nB1rT-30" value="&lt;u&gt;Numarası&lt;/u&gt;" style="ellipse;whiteSpace=wrap;html=1;align=center;" parent="1" vertex="1">
          <mxGeometry x="620" y="850" width="100" height="40" as="geometry" />
        </mxCell>
        <mxCell id="kqpon6GhGyDIYH_nB1rT-31" value="Adı" style="ellipse;whiteSpace=wrap;html=1;align=center;" parent="1" vertex="1">
          <mxGeometry x="700" y="820" width="100" height="40" as="geometry" />
        </mxCell>
        <mxCell id="kqpon6GhGyDIYH_nB1rT-32" value="" style="endArrow=none;html=1;rounded=0;exitX=0.5;exitY=0;exitDx=0;exitDy=0;" parent="1" source="kqpon6GhGyDIYH_nB1rT-30" target="kqpon6GhGyDIYH_nB1rT-29" edge="1">
          <mxGeometry relative="1" as="geometry">
            <mxPoint x="585.3553390593274" y="984.142135623731" as="sourcePoint" />
            <mxPoint x="620" y="1030" as="targetPoint" />
          </mxGeometry>
        </mxCell>
        <mxCell id="kqpon6GhGyDIYH_nB1rT-33" value="" style="endArrow=none;html=1;rounded=0;exitX=0;exitY=0.5;exitDx=0;exitDy=0;entryX=1;entryY=1;entryDx=0;entryDy=0;" parent="1" source="kqpon6GhGyDIYH_nB1rT-31" target="kqpon6GhGyDIYH_nB1rT-29" edge="1">
          <mxGeometry relative="1" as="geometry">
            <mxPoint x="661" y="962" as="sourcePoint" />
            <mxPoint x="667.3529411764705" y="1010" as="targetPoint" />
          </mxGeometry>
        </mxCell>
        <mxCell id="kqpon6GhGyDIYH_nB1rT-34" value="Hakem" style="shape=ext;margin=3;double=1;whiteSpace=wrap;html=1;align=center;" parent="1" vertex="1">
          <mxGeometry x="-87.5" y="840" width="100" height="40" as="geometry" />
        </mxCell>
        <mxCell id="kqpon6GhGyDIYH_nB1rT-35" value="&lt;div&gt;Değerlendirme&lt;/div&gt;&lt;div&gt;Tarihi&lt;br&gt;&lt;/div&gt;" style="ellipse;whiteSpace=wrap;html=1;align=center;" parent="1" vertex="1">
          <mxGeometry x="-32.5" y="900" width="100" height="40" as="geometry" />
        </mxCell>
        <mxCell id="kqpon6GhGyDIYH_nB1rT-36" value="&lt;div&gt;Değerlendirme&lt;/div&gt;&lt;div&gt;Raporu&lt;/div&gt;" style="ellipse;whiteSpace=wrap;html=1;align=center;" parent="1" vertex="1">
          <mxGeometry x="-137.5" y="900" width="100" height="40" as="geometry" />
        </mxCell>
        <mxCell id="kqpon6GhGyDIYH_nB1rT-37" value="" style="endArrow=none;html=1;rounded=0;exitX=0.211;exitY=1.004;exitDx=0;exitDy=0;exitPerimeter=0;" parent="1" source="kqpon6GhGyDIYH_nB1rT-34" target="kqpon6GhGyDIYH_nB1rT-36" edge="1">
          <mxGeometry relative="1" as="geometry">
            <mxPoint x="-312.5" y="620" as="sourcePoint" />
            <mxPoint x="-152.5" y="620" as="targetPoint" />
          </mxGeometry>
        </mxCell>
        <mxCell id="kqpon6GhGyDIYH_nB1rT-38" value="" style="endArrow=none;html=1;rounded=0;exitX=0.973;exitY=0.992;exitDx=0;exitDy=0;exitPerimeter=0;" parent="1" source="kqpon6GhGyDIYH_nB1rT-34" target="kqpon6GhGyDIYH_nB1rT-35" edge="1">
          <mxGeometry relative="1" as="geometry">
            <mxPoint x="-422.5" y="640" as="sourcePoint" />
            <mxPoint x="-342.5" y="661" as="targetPoint" />
          </mxGeometry>
        </mxCell>
        <mxCell id="kqpon6GhGyDIYH_nB1rT-41" value="Baskı Tarihi" style="ellipse;whiteSpace=wrap;html=1;align=center;" parent="1" vertex="1">
          <mxGeometry y="220" width="100" height="40" as="geometry" />
        </mxCell>
        <mxCell id="kqpon6GhGyDIYH_nB1rT-42" value="Sayfa Sayısı" style="ellipse;whiteSpace=wrap;html=1;align=center;" parent="1" vertex="1">
          <mxGeometry x="-165" y="250" width="100" height="40" as="geometry" />
        </mxCell>
        <mxCell id="kqpon6GhGyDIYH_nB1rT-43" value="&lt;u&gt;ISBN Num.&lt;/u&gt;" style="ellipse;whiteSpace=wrap;html=1;align=center;" parent="1" vertex="1">
          <mxGeometry x="-205" y="300" width="100" height="40" as="geometry" />
        </mxCell>
        <mxCell id="kqpon6GhGyDIYH_nB1rT-44" value="" style="endArrow=none;html=1;rounded=0;exitX=1.007;exitY=0.558;exitDx=0;exitDy=0;entryX=0;entryY=1;entryDx=0;entryDy=0;exitPerimeter=0;" parent="1" source="kqpon6GhGyDIYH_nB1rT-43" target="kqpon6GhGyDIYH_nB1rT-51" edge="1">
          <mxGeometry relative="1" as="geometry">
            <mxPoint x="270" y="650" as="sourcePoint" />
            <mxPoint x="-145.5999999999999" y="367.8000000000002" as="targetPoint" />
          </mxGeometry>
        </mxCell>
        <mxCell id="kqpon6GhGyDIYH_nB1rT-45" value="" style="endArrow=none;html=1;rounded=0;exitX=0.5;exitY=1;exitDx=0;exitDy=0;entryX=1;entryY=0;entryDx=0;entryDy=0;" parent="1" source="kqpon6GhGyDIYH_nB1rT-41" target="kqpon6GhGyDIYH_nB1rT-51" edge="1">
          <mxGeometry relative="1" as="geometry">
            <mxPoint x="25.355339059327434" y="464.14213562373095" as="sourcePoint" />
            <mxPoint x="-110" y="360" as="targetPoint" />
          </mxGeometry>
        </mxCell>
        <mxCell id="kqpon6GhGyDIYH_nB1rT-46" value="" style="endArrow=none;html=1;rounded=0;exitX=0.5;exitY=1;exitDx=0;exitDy=0;entryX=0;entryY=0.5;entryDx=0;entryDy=0;" parent="1" source="kqpon6GhGyDIYH_nB1rT-42" target="kqpon6GhGyDIYH_nB1rT-51" edge="1">
          <mxGeometry relative="1" as="geometry">
            <mxPoint x="101" y="442" as="sourcePoint" />
            <mxPoint x="-133.9000000000001" y="359.67999999999984" as="targetPoint" />
          </mxGeometry>
        </mxCell>
        <mxCell id="kqpon6GhGyDIYH_nB1rT-47" value="Fiyatı" style="ellipse;whiteSpace=wrap;html=1;align=center;" parent="1" vertex="1">
          <mxGeometry x="60" y="260" width="100" height="40" as="geometry" />
        </mxCell>
        <mxCell id="kqpon6GhGyDIYH_nB1rT-49" value="Okur Değerlendirmesi" style="ellipse;whiteSpace=wrap;html=1;align=center;" parent="1" vertex="1">
          <mxGeometry x="-210" y="350" width="120" height="50" as="geometry" />
        </mxCell>
        <mxCell id="kqpon6GhGyDIYH_nB1rT-51" value="Yayınlar" style="shape=rhombus;perimeter=rhombusPerimeter;whiteSpace=wrap;html=1;align=center;" parent="1" vertex="1">
          <mxGeometry x="-65" y="270" width="120" height="60" as="geometry" />
        </mxCell>
        <mxCell id="kqpon6GhGyDIYH_nB1rT-52" value="" style="endArrow=none;html=1;rounded=0;entryX=1;entryY=1;entryDx=0;entryDy=0;" parent="1" source="kqpon6GhGyDIYH_nB1rT-51" target="kqpon6GhGyDIYH_nB1rT-1" edge="1">
          <mxGeometry relative="1" as="geometry">
            <mxPoint x="-240" y="350" as="sourcePoint" />
            <mxPoint x="-80" y="350" as="targetPoint" />
          </mxGeometry>
        </mxCell>
        <mxCell id="kqpon6GhGyDIYH_nB1rT-54" value="" style="endArrow=none;html=1;rounded=0;exitX=0;exitY=0;exitDx=0;exitDy=0;entryX=0.5;entryY=1;entryDx=0;entryDy=0;" parent="1" source="kqpon6GhGyDIYH_nB1rT-22" target="kqpon6GhGyDIYH_nB1rT-51" edge="1">
          <mxGeometry relative="1" as="geometry">
            <mxPoint x="-240" y="530" as="sourcePoint" />
            <mxPoint x="-10" y="460" as="targetPoint" />
          </mxGeometry>
        </mxCell>
        <mxCell id="kqpon6GhGyDIYH_nB1rT-55" value="1" style="text;html=1;align=center;verticalAlign=middle;resizable=0;points=[];autosize=1;" parent="1" vertex="1">
          <mxGeometry x="-45" y="180" width="20" height="20" as="geometry" />
        </mxCell>
        <mxCell id="kqpon6GhGyDIYH_nB1rT-56" value="n" style="text;html=1;align=center;verticalAlign=middle;resizable=0;points=[];autosize=1;" parent="1" vertex="1">
          <mxGeometry x="40" y="450" width="20" height="20" as="geometry" />
        </mxCell>
        <mxCell id="kqpon6GhGyDIYH_nB1rT-57" value="" style="endArrow=none;html=1;rounded=0;exitX=0.7;exitY=0;exitDx=0;exitDy=0;exitPerimeter=0;entryX=0.446;entryY=0.932;entryDx=0;entryDy=0;entryPerimeter=0;" parent="1" source="kqpon6GhGyDIYH_nB1rT-22" target="kqpon6GhGyDIYH_nB1rT-58" edge="1">
          <mxGeometry relative="1" as="geometry">
            <mxPoint x="120" y="470" as="sourcePoint" />
            <mxPoint x="150" y="420" as="targetPoint" />
          </mxGeometry>
        </mxCell>
        <mxCell id="kqpon6GhGyDIYH_nB1rT-58" value="Yazar" style="shape=rhombus;perimeter=rhombusPerimeter;whiteSpace=wrap;html=1;align=center;" parent="1" vertex="1">
          <mxGeometry x="155" y="290" width="120" height="60" as="geometry" />
        </mxCell>
        <mxCell id="kqpon6GhGyDIYH_nB1rT-59" value="" style="endArrow=none;html=1;rounded=0;entryX=0;entryY=1;entryDx=0;entryDy=0;exitX=0.5;exitY=0;exitDx=0;exitDy=0;" parent="1" source="kqpon6GhGyDIYH_nB1rT-58" target="kqpon6GhGyDIYH_nB1rT-10" edge="1">
          <mxGeometry relative="1" as="geometry">
            <mxPoint x="315" y="275" as="sourcePoint" />
            <mxPoint x="303.51999999999975" y="325.9200000000001" as="targetPoint" />
          </mxGeometry>
        </mxCell>
        <mxCell id="kqpon6GhGyDIYH_nB1rT-61" value="1" style="text;html=1;align=center;verticalAlign=middle;resizable=0;points=[];autosize=1;" parent="1" vertex="1">
          <mxGeometry x="285" y="200" width="20" height="20" as="geometry" />
        </mxCell>
        <mxCell id="kqpon6GhGyDIYH_nB1rT-62" value="n" style="text;html=1;align=center;verticalAlign=middle;resizable=0;points=[];autosize=1;" parent="1" vertex="1">
          <mxGeometry x="110" y="460" width="20" height="20" as="geometry" />
        </mxCell>
        <mxCell id="kqpon6GhGyDIYH_nB1rT-74" value="" style="endArrow=none;html=1;rounded=0;entryX=0.5;entryY=0;entryDx=0;entryDy=0;exitX=0.5;exitY=1;exitDx=0;exitDy=0;" parent="1" source="kqpon6GhGyDIYH_nB1rT-22" target="kqpon6GhGyDIYH_nB1rT-75" edge="1">
          <mxGeometry relative="1" as="geometry">
            <mxPoint x="120" y="530" as="sourcePoint" />
            <mxPoint x="184" y="680" as="targetPoint" />
          </mxGeometry>
        </mxCell>
        <mxCell id="kqpon6GhGyDIYH_nB1rT-75" value="Sahiptir" style="shape=rhombus;perimeter=rhombusPerimeter;whiteSpace=wrap;html=1;align=center;" parent="1" vertex="1">
          <mxGeometry x="-52.5" y="660" width="120" height="60" as="geometry" />
        </mxCell>
        <mxCell id="kqpon6GhGyDIYH_nB1rT-76" value="m" style="text;html=1;align=center;verticalAlign=middle;resizable=0;points=[];autosize=1;" parent="1" vertex="1">
          <mxGeometry x="70" y="515" width="30" height="20" as="geometry" />
        </mxCell>
        <mxCell id="kqpon6GhGyDIYH_nB1rT-77" value="n" style="text;html=1;align=center;verticalAlign=middle;resizable=0;points=[];autosize=1;" parent="1" vertex="1">
          <mxGeometry x="-32.5" y="820" width="20" height="20" as="geometry" />
        </mxCell>
        <mxCell id="kqpon6GhGyDIYH_nB1rT-78" value="" style="endArrow=none;html=1;rounded=0;exitX=0.5;exitY=1;exitDx=0;exitDy=0;entryX=0.5;entryY=0;entryDx=0;entryDy=0;" parent="1" source="kqpon6GhGyDIYH_nB1rT-75" target="kqpon6GhGyDIYH_nB1rT-34" edge="1">
          <mxGeometry relative="1" as="geometry">
            <mxPoint x="-134.5" y="850.0000000000001" as="sourcePoint" />
            <mxPoint x="-265" y="840" as="targetPoint" />
          </mxGeometry>
        </mxCell>
        <mxCell id="kqpon6GhGyDIYH_nB1rT-80" value="" style="endArrow=none;html=1;rounded=0;entryX=0;entryY=0.5;entryDx=0;entryDy=0;exitX=1;exitY=1;exitDx=0;exitDy=0;" parent="1" source="kqpon6GhGyDIYH_nB1rT-22" target="kqpon6GhGyDIYH_nB1rT-81" edge="1">
          <mxGeometry relative="1" as="geometry">
            <mxPoint x="265" y="580.0000000000001" as="sourcePoint" />
            <mxPoint x="349" y="740" as="targetPoint" />
          </mxGeometry>
        </mxCell>
        <mxCell id="kqpon6GhGyDIYH_nB1rT-81" value="Yer alır" style="shape=rhombus;perimeter=rhombusPerimeter;whiteSpace=wrap;html=1;align=center;" parent="1" vertex="1">
          <mxGeometry x="330" y="700" width="120" height="60" as="geometry" />
        </mxCell>
        <mxCell id="kqpon6GhGyDIYH_nB1rT-82" value="n" style="text;html=1;align=center;verticalAlign=middle;resizable=0;points=[];autosize=1;" parent="1" vertex="1">
          <mxGeometry x="150" y="510" width="20" height="20" as="geometry" />
        </mxCell>
        <mxCell id="kqpon6GhGyDIYH_nB1rT-83" value="1" style="text;html=1;align=center;verticalAlign=middle;resizable=0;points=[];autosize=1;" parent="1" vertex="1">
          <mxGeometry x="540" y="750" width="20" height="20" as="geometry" />
        </mxCell>
        <mxCell id="kqpon6GhGyDIYH_nB1rT-84" value="" style="endArrow=none;html=1;rounded=0;exitX=1;exitY=0.5;exitDx=0;exitDy=0;entryX=0;entryY=0.25;entryDx=0;entryDy=0;" parent="1" source="kqpon6GhGyDIYH_nB1rT-81" target="kqpon6GhGyDIYH_nB1rT-29" edge="1">
          <mxGeometry relative="1" as="geometry">
            <mxPoint x="260.5" y="840.0000000000001" as="sourcePoint" />
            <mxPoint x="305" y="900" as="targetPoint" />
          </mxGeometry>
        </mxCell>
        <mxCell id="kqpon6GhGyDIYH_nB1rT-87" value="&lt;font style=&quot;font-size: 28px&quot;&gt;Kitabevi Veritabanı&lt;/font&gt;" style="text;html=1;align=center;verticalAlign=middle;resizable=0;points=[];autosize=1;strokeWidth=3;spacing=6;" parent="1" vertex="1">
          <mxGeometry x="-60" y="-70" width="260" height="40" as="geometry" />
        </mxCell>
        <mxCell id="36Kc9f6XUEqIvoevzVNH-1" value="" style="endArrow=none;html=1;rounded=0;exitX=1;exitY=0.5;exitDx=0;exitDy=0;entryX=0.337;entryY=0.85;entryDx=0;entryDy=0;entryPerimeter=0;" edge="1" parent="1" source="kqpon6GhGyDIYH_nB1rT-49" target="kqpon6GhGyDIYH_nB1rT-51">
          <mxGeometry relative="1" as="geometry">
            <mxPoint x="-94.29999999999995" y="332.32000000000016" as="sourcePoint" />
            <mxPoint x="-25" y="325" as="targetPoint" />
          </mxGeometry>
        </mxCell>
        <mxCell id="36Kc9f6XUEqIvoevzVNH-2" value="" style="endArrow=none;html=1;rounded=0;exitX=0.014;exitY=0.635;exitDx=0;exitDy=0;entryX=1;entryY=0.5;entryDx=0;entryDy=0;exitPerimeter=0;" edge="1" parent="1" source="kqpon6GhGyDIYH_nB1rT-47" target="kqpon6GhGyDIYH_nB1rT-51">
          <mxGeometry relative="1" as="geometry">
            <mxPoint x="60" y="270" as="sourcePoint" />
            <mxPoint x="35" y="295" as="targetPoint" />
          </mxGeometry>
        </mxCell>
      </root>
    </mxGraphModel>
  </diagram>
</mxfile>
